Coordinates
version=1
nRows=17
nColumns=38
inDegrees=yes

Units are S.I. units (second, meters, Newtons, ...)
Angles are in degrees.

endheader
time	pelvis_tilt	pelvis_list	pelvis_rotation	pelvis_tx	pelvis_ty	pelvis_tz	hip_flexion_r	hip_adduction_r	hip_rotation_r	knee_angle_r	ankle_angle_r	subtalar_angle_r	mtp_angle_r	hip_flexion_l	hip_adduction_l	hip_rotation_l	knee_angle_l	ankle_angle_l	subtalar_angle_l	mtp_angle_l	lumbar_extension	lumbar_bending	lumbar_rotation	arm_flex_r	arm_add_r	arm_rot_r	elbow_flex_r	pro_sup_r	wrist_flex_r	wrist_dev_r	arm_flex_l	arm_add_l	arm_rot_l	elbow_flex_l	pro_sup_l	wrist_flex_l	wrist_dev_l
      1.70000000	      4.68585879	     -0.57368628	      1.43828913	      0.32278862	      1.00757276	     -0.23851804	     -5.01765323	      5.99383421	      3.32731620	    -13.07578802	      7.87710131	    -11.62704056	      0.00000000	     18.09181989	     -1.31474596	     -0.49627431	    -40.46913029	      5.96715863	     -6.70942172	      0.00000000	    -19.52392850	      2.20536677	      1.66897047	     -2.96013554	     -7.13687340	     21.95611050	     54.36729490	     43.26695586	      0.00000000	      0.00000000	     -4.22822225	    -11.14881679	     29.09028620	     49.54721897	     43.26695586	      0.00000000	      0.00000000
      1.71000000	      4.74435668	     -0.74405426	      1.27155873	      0.33642499	      1.00685670	     -0.23840326	     -6.48141932	      6.12353945	      3.04158968	    -11.94157592	      8.28687664	    -11.27537843	      0.00000000	     18.24953840	     -1.44772550	      0.00316029	    -36.94279044	      5.63668845	     -6.65342507	      0.00000000	    -19.56544125	      2.26155085	      1.99639953	     -2.51122217	     -7.33239616	     21.79089083	     55.40801945	     43.29152064	      0.00000000	      0.00000000	     -4.98243974	    -11.42887310	     28.99318212	     49.16078507	     43.29152064	      0.00000000	      0.00000000
      1.72000000	      4.81688221	     -0.92449531	      1.13711620	      0.35019524	      1.00578092	     -0.23843681	     -8.08323694	      6.31858597	      3.36823382	    -10.70958106	      8.30660095	    -11.38965970	      0.00000000	     18.32000882	     -1.58114529	      0.55334310	    -33.29310310	      5.15657485	     -7.09034874	      0.00000000	    -19.60283499	      2.34807448	      2.36291934	     -2.33457840	     -7.75071922	     21.68171434	     57.24693684	     43.32698013	      0.00000000	      0.00000000	     -5.67618551	    -11.61376950	     28.80616604	     48.73242142	     43.32698013	      0.00000000	      0.00000000
      1.73000000	      4.82589607	     -1.21121329	      1.00028007	      0.36404532	      1.00428429	     -0.23845220	     -9.54219163	      6.59167964	      3.47369098	     -9.54530909	      8.40511191	    -11.50737692	      0.00000000	     18.48614207	     -1.88752774	      1.01632990	    -29.77100647	      4.66073727	     -7.35478311	      0.00000000	    -19.57145569	      2.55665339	      2.76026521	     -2.83933349	     -8.32746690	     20.85620681	     60.92638536	     43.44429194	      0.00000000	      0.00000000	     -6.37069645	    -11.66398659	     28.30354089	     48.15998266	     43.44429194	      0.00000000	      0.00000000
      1.74000000	      4.86895923	     -1.46777532	      0.87922170	      0.37808837	      1.00253974	     -0.23847567	    -11.04893119	      6.82623767	      3.50575746	     -8.46820994	      8.57247107	    -11.29043663	      0.00000000	     18.60519021	     -2.21664616	      1.28269198	    -26.36973429	      4.08958262	     -7.43578363	      0.00000000	    -19.52663076	      2.71147606	      3.03441459	     -2.35175254	     -8.51079422	     20.71610233	     61.53530032	     43.45772077	      0.00000000	      0.00000000	     -7.20330518	    -11.93674277	     28.29639461	     47.84216971	     43.45772077	      0.00000000	      0.00000000
      1.75000000	      5.09722827	     -1.65636903	      0.83659555	      0.39224270	      1.00084404	     -0.23871311	    -12.72455189	      7.00888987	      3.48358906	     -7.42918986	      8.67436726	    -11.30370678	      0.00000000	     18.41473696	     -2.36334886	      2.01174909	    -22.89105400	      2.84321079	     -8.41212267	      0.00000000	    -19.70607410	      2.82974848	      3.29695604	     -2.21892375	     -8.92828014	     20.73706111	     63.39778006	     43.49059642	      0.00000000	      0.00000000	     -7.77812123	    -12.13837762	     28.13344104	     47.44533988	     43.49059642	      0.00000000	      0.00000000
      1.76000000	      5.16936334	     -1.83084769	      0.78448892	      0.40643461	      0.99865867	     -0.23892925	    -14.17222094	      7.19551425	      3.23199691	     -6.52018574	      8.93218923	    -11.18467608	      0.00000000	     18.53895766	     -2.64394721	      1.90523951	    -19.84742187	      1.62316207	     -8.56178763	      0.00000000	    -19.69047971	      2.92276533	      3.48087967	     -2.07009758	     -9.33454990	     20.71908690	     65.13482911	     43.51955441	      0.00000000	      0.00000000	     -8.47556246	    -12.34304381	     27.98987484	     46.97951069	     43.51955441	      0.00000000	      0.00000000
      1.77000000	      4.96967723	     -2.22260405	      0.73582776	      0.42058258	      0.99603026	     -0.23903189	    -15.14464627	      7.58780810	      3.17274032	     -6.01426476	      9.15904329	    -10.98441126	      0.00000000	     19.07997797	     -3.17006327	      1.52651876	    -17.28611355	      0.71928381	     -8.22201226	      0.00000000	    -19.35303859	      3.23330403	      3.76027253	     -1.73622823	     -9.56369169	     20.62647916	     65.59794897	     43.52632646	      0.00000000	      0.00000000	     -9.09330506	    -12.58973657	     27.95669941	     46.71792781	     43.52632646	      0.00000000	      0.00000000
      1.78000000	      5.09195320	     -2.42726615	      0.62569703	      0.43485767	      0.99395083	     -0.23923581	    -16.50505928	      7.72920097	      3.07133396	     -5.38944512	      9.20457702	    -10.71649480	      0.00000000	     19.20548970	     -3.44401207	      0.98368137	    -14.93012107	     -0.21604474	     -8.09992468	      0.00000000	    -19.39562938	      3.34123450	      4.00315408	     -1.38647115	     -9.89859005	     20.63708340	     66.81626838	     43.53796176	      0.00000000	      0.00000000	     -9.80221506	    -12.73813161	     27.85376297	     46.23223777	     43.53796176	      0.00000000	      0.00000000
      1.79000000	      5.12354147	     -2.63239515	      0.35148066	      0.44873570	      0.99163398	     -0.23940539	    -17.51961945	      7.80774455	      3.07864950	     -5.28951087	      9.57337841	    -10.18844075	      0.00000000	     19.40570682	     -3.65365650	      0.62768483	    -12.89891880	     -0.94859600	     -8.23640858	      0.00000000	    -19.44686111	      3.43209940	      4.57244425	     -2.11483312	    -10.95615003	     20.68935979	     71.31076166	     43.60840235	      0.00000000	      0.00000000	     -9.89515503	    -12.40505231	     26.93295974	     44.62318691	     43.60840235	      0.00000000	      0.00000000
      1.80000000	      5.02185539	     -2.90880053	      0.13195666	      0.46287013	      0.98927492	     -0.23949554	    -18.34104516	      7.98129747	      3.25995715	     -5.27520822	      9.81474681	    -10.02551923	      0.00000000	     19.81714513	     -3.88844381	      0.34891712	    -11.39632296	     -1.45371688	     -7.95518710	      0.00000000	    -19.25604835	      3.56515979	      5.07079842	     -1.76827606	    -11.10644866	     20.56160540	     71.51256746	     43.61185215	      0.00000000	      0.00000000	    -10.37260775	    -12.50556702	     26.88673205	     44.38317957	     43.61185215	      0.00000000	      0.00000000
      1.81000000	      5.34992479	     -2.88161796	     -0.33590875	      0.47713805	      0.98806705	     -0.23955577	    -19.41464652	      7.67899415	      3.46359736	     -5.67905290	      9.98135731	     -9.17557429	      0.00000000	     19.46695224	     -3.91806413	     -0.58277657	     -9.84362156	     -2.18656460	     -7.07063417	      0.00000000	    -19.59307057	      3.36333744	      5.70640133	     -1.91776396	    -11.63178825	     20.35018501	     73.52925672	     43.65184934	      0.00000000	      0.00000000	    -10.41541537	    -12.09980534	     25.93287979	     42.73972312	     43.65184934	      0.00000000	      0.00000000
      1.82000000	      5.29541136	     -3.08003038	     -0.70094613	      0.49114971	      0.98634433	     -0.23960855	    -19.93950417	      7.66533077	      3.97122289	     -6.32382642	     10.07648587	     -8.79623063	      0.00000000	     19.56217843	     -4.04738942	     -0.83119537	     -8.68626039	     -2.57334847	     -6.59482785	      0.00000000	    -19.49294580	      3.38080264	      6.32555576	     -1.61319333	    -11.85544836	     20.20294061	     73.81351103	     43.65695332	      0.00000000	      0.00000000	    -10.69297085	    -12.20133813	     25.81027604	     42.40355532	     43.65695332	      0.00000000	      0.00000000
      1.83000000	      5.48876880	     -3.04232735	     -1.19991264	      0.50549262	      0.98531094	     -0.23982385	    -20.42608862	      7.27902690	      3.75446509	     -7.58598033	     10.66796372	     -7.29023425	      0.00000000	     19.31387929	     -4.03669955	     -1.97699980	     -7.98989008	     -2.05748643	     -4.59956449	      0.00000000	    -19.65115125	      3.15251390	      7.19146728	     -2.29295854	    -12.36721649	     19.50932873	     76.32887359	     43.73039403	      0.00000000	      0.00000000	    -10.01277993	    -11.24617633	     24.30261297	     39.07391862	     43.73039403	      0.00000000	      0.00000000
      1.84000000	      5.66937749	     -3.01500908	     -1.59703865	      0.51995606	      0.98449150	     -0.24014369	    -20.95758159	      6.95662648	      4.07420632	     -8.70167540	     10.61536395	     -6.63359148	      0.00000000	     18.89696194	     -3.84001459	     -1.56028963	     -7.42313769	     -1.58491157	     -4.28530443	      0.00000000	    -19.77321089	      2.93860909	      7.83510310	     -2.30244104	    -12.59501944	     19.26692590	     76.70741307	     43.74776837	      0.00000000	      0.00000000	     -9.92465466	    -11.12416878	     24.07840349	     38.47334518	     43.74776837	      0.00000000	      0.00000000
      1.85000000	      5.77801741	     -3.07355659	     -1.91347640	      0.53464947	      0.98368961	     -0.24054797	    -21.32424045	      6.73088165	      4.19751146	     -9.97648050	     10.48357253	     -5.83650493	      0.00000000	     18.56777583	     -3.65107523	     -0.85492187	     -7.27959599	     -0.99073326	     -4.17770816	      0.00000000	    -19.78424168	      2.82000266	      8.38776640	     -2.45628663	    -12.81688814	     19.06664074	     77.18154003	     43.76118542	      0.00000000	      0.00000000	     -9.79984432	    -10.95970671	     23.82400890	     37.80925269	     43.76118542	      0.00000000	      0.00000000
      1.86000000	      5.78848280	     -2.96761131	     -2.08669629	      0.54963769	      0.98307302	     -0.24107975	    -21.65940020	      6.40525956	      4.48852329	    -11.07059523	      9.73448435	     -5.41081440	      0.00000000	     18.33450018	     -3.27224310	     -0.18302880	     -7.51870230	     -0.79645590	     -3.89133202	      0.00000000	    -19.63850446	      2.54883263	      8.65243898	     -2.54175729	    -12.87832352	     19.01996496	     77.29516149	     43.76386162	      0.00000000	      0.00000000	     -9.95074180	    -10.89336526	     23.77691996	     37.57835072	     43.76386162	      0.00000000	      0.00000000
